HIERARCHY
ROOT Hips
{
	OFFSET 0.000000 0.000000 0.000000 
	CHANNELS 6 Xposition Yposition Zposition Yrotation Zrotation Xrotation 
	JOINT Lumbar
	{
		OFFSET 0.000000 0.000000 0.000000 
		CHANNELS 3 Zrotation Xrotation Yrotation
		JOINT Neck
		{
			OFFSET 0.000000 0.445665 0.000000 
			CHANNELS 3 Zrotation Xrotation Yrotation
			End Site
			{
				OFFSET 0.000000 0.227535 0.000000 
			}
		}
		JOINT RightShoulder
		{
			OFFSET 0.019635 0.377685 0.194865 
			CHANNELS 3 Zrotation Xrotation Yrotation
			JOINT RightElbow
			{
				OFFSET 0.000000 -0.243375 0.000000 
				CHANNELS 2 Zrotation Yrotation
				JOINT RightWrist
				{
					OFFSET 0.000000 -0.264825 0.000000 
					CHANNELS 2 Zrotation Xrotation
					End Site
					{
						OFFSET 0.006600 -0.176220 0.000990 
					}
				}
			}
		}
		JOINT LeftShoulder
		{
			OFFSET 0.019635 0.377685 -0.194865 
			CHANNELS 3 Zrotation Xrotation Yrotation
			JOINT LeftElbow
			{
				OFFSET 0.000000 -0.243375 0.000000 
				CHANNELS 2 Zrotation Yrotation
				JOINT LeftWrist
				{
					OFFSET 0.000000 -0.264825 0.000000 
					CHANNELS 2 Zrotation Xrotation
					End Site
					{
						OFFSET 0.006600 -0.176220 -0.000990 
					}
				}
			}
		}
	}
	JOINT RightHip
	{
		OFFSET 0.052140 -0.069960 0.075570 
		CHANNELS 3 Zrotation Xrotation Yrotation
		JOINT RightKnee
		{
			OFFSET 0.000000 -0.402270 0.000000 
			CHANNELS 1 Zrotation
			JOINT RightAnkle
			{
				OFFSET 0.000000 -0.404085 0.000000 
				CHANNELS 3 Zrotation Xrotation Yrotation
				End Site
				{
					OFFSET 0.204105 -0.089430 0.008415 
				}
			}
		}
	}
	JOINT LeftHip
	{
		OFFSET 0.052140 -0.069960 -0.075570 
		CHANNELS 3 Zrotation Xrotation Yrotation
		JOINT LeftKnee
		{
			OFFSET 0.000000 -0.402270 0.000000 
			CHANNELS 1 Zrotation
			JOINT LeftAnkle
			{
				OFFSET 0.000000 -0.404085 0.000000 
				CHANNELS 3 Zrotation Xrotation Yrotation
				End Site
				{
					OFFSET 0.204105 -0.089430 -0.008415 
				}
			}
		}
	}
}
MOTION
Frames: 31
Frame Time: 0.02
-0.43653 0.93462 -0.49059 188.77205 0 -3.72337 -25.90693 8.77059 5.9107 1.83565 6.92549 3.53054 4.75691 -14.45732 52.64527 86.28399 90.92474 -15.89702 -5.30028 15.91192 25.28224 -3.17892 54.37991 -93.65677 -40.07731 4.22558 12.36103 4.71851 0.89374 -26.17441 5.86937 -1.78659 -0.64261 14.38175 6.61582 -8.90948 -23.1883 6.955 4.17474 5.77299
-0.43814 0.93496 -0.49681 188.93211 0 -3.68454 -25.99085 8.71309 5.76894 2.15686 7.0342 3.26969 4.36833 -14.56446 52.65237 86.30297 90.67537 -15.60246 -5.25764 16.77023 25.96335 -4.01341 54.75174 -93.44879 -39.97713 4.2159 12.05314 5.01994 0.77022 -25.72253 5.8856 -1.78027 -0.69139 14.08419 6.94961 -9.02967 -22.63423 6.79435 4.16269 5.71822
-0.43986 0.93524 -0.50271 189.0534 0 -3.62512 -26.03328 8.63975 5.58675 2.50907 7.19146 2.99861 3.92368 -14.70909 52.66102 86.34969 90.27283 -15.22988 -5.18645 17.74146 26.7548 -4.93623 54.95243 -93.12535 -39.8433 4.20099 11.76039 5.29125 0.66012 -25.30388 5.92546 -1.76122 -0.72422 13.76586 7.27582 -9.02115 -22.05869 6.65201 4.1583 5.61993
-0.44154 0.93556 -0.50873 189.20597 0 -3.57641 -26.09451 8.58376 5.41 2.85883 7.31434 2.72319 3.49633 -14.81691 52.66847 86.36486 89.95786 -14.89638 -5.13334 18.73489 27.55187 -5.85557 55.22637 -92.84085 -39.73422 4.18695 11.45841 5.5759 0.53922 -24.86703 5.94595 -1.7521 -0.77167 13.45655 7.60366 -9.0772 -21.48538 6.49326 4.14496 5.53914
-0.44319 0.93582 -0.51486 189.29845 0 -3.52228 -26.15338 8.48395 5.2895 3.15821 7.49002 2.48588 3.10228 -15.01029 52.67818 86.46301 89.56852 -14.54624 -5.05897 19.4061 28.12197 -6.6085 55.53355 -92.61494 -39.5898 4.17955 11.16634 5.86408 0.44229 -24.44369 6.00152 -1.72618 -0.79027 13.14728 7.94102 -9.10945 -20.94134 6.36866 4.15409 5.46756
-0.44492 0.93619 -0.52067 189.50873 0 -3.47406 -26.208 8.47221 5.04038 3.568 7.56739 2.16578 2.62887 -15.0331 52.68348 86.39319 89.29591 -14.21123 -5.02189 20.79385 29.17969 -7.74131 55.7135 -92.23943 -39.50551 4.15689 10.85646 6.13604 0.29425 -23.99868 5.98982 -1.73141 -0.86326 12.83273 8.25486 -9.15722 -20.33008 6.17579 4.11878 5.36751
-0.44685 0.93683 -0.52575 190.04193 0 -3.45178 -26.26454 8.70516 4.46152 4.30289 7.35394 1.63174 1.91622 -14.57947 52.67619 85.85841 89.40129 -13.95737 -5.09692 23.95622 31.65301 -9.79754 55.73246 -91.47625 -39.64126 4.09474 10.5034 6.38189 0.03801 -23.50154 5.79083 -1.83264 -1.10392 12.5205 8.51977 -9.3129 -19.5655 5.80878 3.95514 5.18841
-0.44886 0.93759 -0.5305 190.69692 0 -3.43529 -26.31783 9.02773 3.75214 5.14216 7.03982 1.01311 1.13259 -13.9506 52.66435 85.15135 89.62793 -13.71907 -5.21056 27.86529 34.59271 -12.2474 55.60259 -90.56852 -39.82987 4.01739 10.13031 6.61026 -0.27578 -22.97889 5.52295 -1.96452 -1.39762 12.20204 8.75833 -9.48211 -18.73035 5.3696 3.74738 4.98415
-0.45083 0.93832 -0.53534 191.30473 0 -3.41319 -26.37096 9.31108 3.09169 5.91727 6.77812 0.42475 0.40218 -13.40107 52.65461 84.52026 89.78474 -13.45959 -5.30449 31.55113 37.2594 -14.59248 55.44207 -89.72629 -39.96452 3.94573 9.76005 6.83896 -0.58863 -22.4574 5.28387 -2.0776 -1.65745 11.87894 8.99988 -9.6239 -17.90962 4.9508 3.56218 4.79854
-0.4528 0.93896 -0.54041 191.87871 0 -3.40301 -26.43021 9.58795 2.47179 6.76825 6.49521 -0.13155 -0.42241 -12.85982 52.6449 83.90363 89.99061 -13.25294 -5.40452 34.76239 40.19882 -16.64999 55.68607 -88.87365 -40.22532 3.87795 9.41639 7.09847 -0.79957 -21.98012 5.05549 -2.21011 -1.9562 11.58598 9.28005 -9.85286 -17.15979 4.58325 3.36617 4.58083
-0.45481 0.93981 -0.54493 192.55004 0 -3.36955 -26.47558 9.8992 1.73933 7.48027 6.22536 -0.77201 -1.06224 -12.25212 52.63392 83.21102 90.13481 -12.9459 -5.50395 39.1234 42.66558 -19.37087 55.06 -88.01896 -40.23521 3.79991 9.01287 7.29045 -1.23031 -21.4055 4.789 -2.31049 -2.1889 11.2298 9.47244 -9.90282 -16.24935 4.09381 3.18269 4.42472
-0.45692 0.94125 -0.54813 193.48275 0 -3.27119 -26.49127 10.28815 0.70923 7.82832 6.07287 -1.64534 -1.21391 -11.56728 52.62097 82.39107 89.99413 -12.31819 -5.56886 46.59768 43.82969 -24.06795 52.02141 -87.11401 -39.54942 3.6853 8.44466 7.29657 -2.30797 -20.55774 4.42707 -2.30693 -2.20746 10.69499 9.4391 -9.47725 -14.88398 3.26661 3.0394 4.44396
-0.45909 0.9429 -0.55079 194.50535 0 -3.14909 -26.49176 10.70736 -0.42484 8.02408 5.92668 -2.59579 -1.16906 -10.81171 52.60659 81.49395 89.80216 -11.59822 -5.63524 55.17699 44.47866 -29.37456 48.12317 -86.22583 -38.6078 3.56291 7.81768 7.23607 -3.59464 -19.61479 4.03045 -2.27139 -2.16137 10.09848 9.31657 -8.86878 -13.36585 2.32287 2.91114 4.52647
-0.46125 0.94444 -0.55364 195.47224 0 -3.03748 -26.49436 11.11028 -1.50021 8.26004 5.7395 -3.49785 -1.18867 -10.04403 52.59283 80.60423 89.69228 -10.94497 -5.71785 63.17437 45.2877 -34.24265 44.64809 -85.38513 -37.77661 3.45223 7.22029 7.20871 -4.75043 -18.72209 3.65416 -2.25572 -2.15719 9.53327 9.22813 -8.32871 -11.93541 1.44448 2.77942 4.58076
-0.46333 0.94607 -0.55669 196.50571 0 -2.92752 -26.51738 11.52883 -2.633 8.62317 5.70762 -4.46191 -1.31768 -9.44835 52.5799 79.82108 89.34523 -10.18135 -5.735 71.54735 46.42983 -39.80272 41.02514 -84.31357 -36.97098 3.30747 6.60987 7.169 -6.06046 -17.79867 3.25591 -2.21895 -2.10167 8.95172 9.16558 -7.8463 -10.42147 0.51043 2.63211 4.63174
-0.46559 0.94755 -0.5592 197.4207 0 -2.80817 -26.49393 11.9186 -3.66353 8.68261 5.3578 -5.31067 -1.16874 -8.49088 52.56387 78.80521 89.46984 -9.63328 -5.88262 79.3746 46.74456 -44.06575 37.51478 -83.72009 -36.05177 3.23083 6.01314 7.13899 -7.09722 -16.91741 2.89644 -2.21769 -2.13741 8.39256 9.02874 -7.20632 -9.05098 -0.33332 2.52118 4.70515
-0.4683 0.94861 -0.56039 197.98262 0 -2.67061 -26.34916 12.24042 -4.43503 7.95272 4.10631 -5.85114 -0.32295 -6.45813 52.54908 77.12068 90.97989 -9.63361 -6.43943 85.55507 44.94595 -44.55548 34.47043 -84.52197 -34.8734 3.35532 5.46642 7.15575 -7.3366 -16.17172 2.64953 -2.32575 -2.4369 7.88568 8.70459 -6.1237 -8.0727 -0.90841 2.50927 4.82308
-0.47119 0.94951 -0.56105 198.42261 0 -2.52399 -26.15769 12.52842 -5.09118 6.92115 2.53995 -6.26755 0.79893 -4.08206 52.52945 75.21403 92.95039 -9.86484 -7.11831 91.11792 42.32461 -43.72513 31.58153 -85.79306 -33.59192 3.54703 4.93594 7.18391 -7.2926 -15.47246 2.44362 -2.46978 -2.83053 7.40819 8.30961 -4.89863 -7.25217 -1.38664 2.53322 4.96148
-0.47399 0.95047 -0.56194 198.91998 0 -2.38025 -25.98525 12.81881 -5.76632 6.01746 1.13193 -6.72071 1.81145 -1.92541 52.50593 73.43921 94.66614 -10.03841 -7.70857 96.87683 40.04402 -43.52465 28.65673 -86.79458 -32.36126 3.70026 4.39966 7.20461 -7.37169 -14.75503 2.22147 -2.59504 -3.18396 6.9333 7.94982 -3.77289 -6.38678 -1.90265 2.53954 5.09239
-0.47682 0.95148 -0.56284 199.41099 0 -2.24103 -25.82094 13.16439 -6.58255 5.14145 -0.34311 -7.2575 2.76869 0.50147 52.5082 71.53056 96.58147 -10.01775 -8.43803 103.04073 37.87338 -43.21791 25.54952 -88.02321 -31.10036 3.88505 3.85499 7.23288 -7.47926 -14.02265 1.9886 -2.72975 -3.52594 6.38845 7.57431 -2.49431 -5.40254 -2.44857 2.55211 5.21949
-0.47963 0.95235 -0.5636 199.8867 0 -2.09038 -25.62955 13.38747 -7.08086 4.14561 -1.74986 -7.59211 3.89662 2.44611 52.45545 69.84974 98.17956 -10.44692 -8.9075 108.18904 35.30048 -42.8127 22.87742 -88.90412 -29.88707 4.02222 3.332 7.24859 -7.46112 -13.33271 1.78744 -2.8533 -3.91287 5.99763 7.21579 -1.50319 -4.70554 -2.90835 2.55984 5.35651
-0.48236 0.95285 -0.56413 200.33482 0 -1.91212 -25.36859 13.27248 -6.68753 2.82947 -2.92061 -7.37663 5.49113 2.97262 52.25373 68.84727 98.89085 -12.15573 -8.62097 110.76903 31.68705 -42.439 21.31278 -88.5871 -28.7824 3.99366 2.86912 7.23052 -7.13254 -12.75794 1.67152 -2.94093 -4.41867 6.02053 6.92316 -1.33646 -4.76179 -3.14712 2.54652 5.53309
-0.48507 0.95322 -0.56454 200.77357 0 -1.72259 -25.08343 13.03666 -5.98509 1.41604 -4.00581 -6.96558 7.23484 3.00124 51.99666 68.08386 99.2505 -14.29277 -8.07042 112.32644 27.72453 -42.01166 20.19507 -87.92521 -27.73962 3.91796 2.42718 7.19915 -6.69208 -12.22327 1.58503 -3.01553 -4.96323 6.19822 6.65045 -1.46524 -5.10225 -3.30306 2.5268 5.71529
-0.48778 0.95366 -0.565 201.22677 0 -1.53703 -24.81325 12.86143 -5.45174 0.08896 -5.11138 -6.65834 8.86849 3.26014 51.76355 67.21384 99.70168 -16.17185 -7.64571 114.29101 24.00988 -41.61944 18.91434 -87.50381 -26.70118 3.87591 1.97295 7.17165 -6.32344 -11.66426 1.47998 -3.0938 -5.47895 6.30867 6.36775 -1.46294 -5.31478 -3.50106 2.50923 5.88356
-0.49053 0.95405 -0.56545 201.63494 0 -1.35547 -24.52378 12.66142 -4.79548 -1.42797 -6.30795 -6.28425 10.69166 3.51753 51.53457 66.32439 100.44773 -18.32398 -7.1992 116.47902 19.8881 -41.13888 17.4709 -86.75183 -25.52135 3.7857 1.53023 7.15332 -5.8573 -11.1316 1.39751 -3.18284 -6.04617 6.40838 6.08561 -1.44369 -5.52931 -3.67784 2.49615 6.10126
-0.49318 0.95452 -0.56589 202.1335 0 -1.16366 -24.2704 12.48432 -4.32098 -2.56697 -7.28819 -6.00394 12.15015 3.65107 51.28483 65.53891 100.50189 -20.0091 -6.73549 117.96513 16.54397 -40.84332 16.46849 -86.59202 -24.65276 3.78234 1.0692 7.11304 -5.57034 -10.5543 1.27536 -3.24585 -6.51305 6.56509 5.80907 -1.52968 -5.8029 -3.8795 2.4717 6.21624
-0.49557 0.95531 -0.56637 202.90754 0 -0.94103 -24.11452 12.4041 -4.44395 -2.64877 -7.71015 -6.03603 12.57639 3.59808 50.98315 64.95148 98.62659 -20.27316 -6.27342 117.77467 15.42322 -41.10619 16.59463 -88.21922 -24.62482 4.04139 0.54517 7.01166 -5.81458 -9.83299 1.02862 -3.24043 -6.70209 6.85636 5.53433 -1.85371 -6.18897 -4.17777 2.41745 6.0538
-0.49784 0.95619 -0.56684 203.7687 0 -0.70965 -23.99792 12.35059 -4.757 -2.34208 -7.91202 -6.16858 12.62572 3.42909 50.6639 64.46775 96.08349 -20.05651 -5.80521 116.91252 15.10343 -41.55725 17.14552 -90.43757 -24.90972 4.38675 0.00354 6.88935 -6.24234 -9.06759 0.74229 -3.20908 -6.78682 7.19669 5.26667 -2.27089 -6.62046 -4.50278 2.35186 5.78684
-0.50014 0.957 -0.5673 204.57559 0 -0.48555 -23.86841 12.28232 -4.97099 -2.20669 -8.20163 -6.25236 12.84034 3.29005 50.35822 63.95708 93.91376 -20.07601 -5.34955 116.35524 14.42687 -41.90616 17.48711 -92.34092 -25.05371 4.68542 -0.52564 6.779 -6.58204 -8.32882 0.47885 -3.18923 -6.91299 7.50457 5.00178 -2.63274 -7.01784 -4.81132 2.29111 5.56193
-0.50253 0.9579 -0.56782 205.44557 0 -0.24647 -23.71566 12.22063 -5.22915 -2.10253 -8.54183 -6.34333 13.09072 3.23211 50.02756 63.36736 91.44075 -20.03498 -4.84434 115.76945 13.70562 -42.32254 17.90993 -94.4354 -25.19235 5.01535 -1.07394 6.65769 -6.93889 -7.562 0.19529 -3.17005 -7.06533 7.86081 4.71179 -3.05812 -7.4817 -5.13606 2.23115 5.35788
-0.5047 0.95865 -0.5682 206.20303 0 -0.03748 -23.62284 12.15347 -5.44259 -1.83294 -8.72356 -6.4446 13.16883 2.98147 49.74481 62.96636 89.4407 -20.00147 -4.44331 115.08949 13.27412 -42.64395 18.26251 -96.26759 -25.41826 5.29961 -1.58551 6.55463 -7.30313 -6.84468 -0.05556 -3.1436 -7.1384 8.12585 4.4761 -3.37144 -7.81465 -5.43333 2.16738 5.08843
